<?xml version="1.0" encoding="utf-8"?>
<!-- Generator: Adobe Illustrator 21.1.0, SVG Export Plug-In . SVG Version: 6.00 Build 0)  -->
<svg version="1.1" id="Layer_1" xmlns="http://www.w3.org/2000/svg" xmlns:xlink="http://www.w3.org/1999/xlink" x="0px" y="0px"
	 viewBox="0 0 611 50" style="enable-background:new 0 0 611 50;" xml:space="preserve">
<style type="text/css">
	.st0{fill:#828282;stroke:#808285;stroke-width:2.0468;stroke-miterlimit:10;}
	.st1{fill:#828282;stroke:#808285;stroke-width:0.8;stroke-miterlimit:10;}
	.st2{fill:#DE1E34;}
</style>
<line class="st0" x1="262.8" y1="5.7" x2="262.8" y2="35.9"/>
<g>
	<g>
		<path class="st1" d="M287.5,11.3h17V13h-15.1v9.5h13.2v1.7h-13.2v9.6h15.4v1.7h-17.3V11.3z"/>
		<path class="st1" d="M308.2,32.1V11.3h1.9v20.5c0,1.7,0.5,2.2,2.1,2.2h1.2v1.6h-1.6C309.5,35.6,308.2,34.6,308.2,32.1z"/>
		<path class="st1" d="M314.7,27.3c0-5.7,2.7-8.7,7.7-8.7c4.8,0,7.1,3.2,7.1,8.2c0,0.5,0,1.1,0,1.1h-12.8c0.1,4.6,2.1,6.6,5.9,6.6
			c2.7,0,4.5-0.9,5.5-3.2l1.5,0.8c-1.2,2.8-3.7,4.1-7,4.1C317.6,36,314.7,33.3,314.7,27.3z M316.7,26.3h10.9
			c-0.1-4.2-1.9-6.2-5.2-6.2C318.9,20.1,316.9,22,316.7,26.3z"/>
		<path class="st1" d="M332.5,27.3c0-6,2.8-8.8,7.9-8.8c3.3,0,5.4,1.3,6.7,3.5l-1.4,0.9c-1-1.9-2.8-2.9-5.2-2.9c-4,0-5.9,2-5.9,7.2
			c0,5.1,2,7.1,5.9,7.1c2.7,0,4.4-0.9,5.4-3.3l1.5,0.8c-1.2,2.8-3.6,4.1-6.9,4.1C335.3,36,332.5,33.3,332.5,27.3z"/>
		<path class="st1" d="M352,18.9v-5.1h1.9v5.1h5.4v1.5h-5.4v9.5c0,3.7,1.4,4.4,3.4,4.4c0.9,0,1.5-0.1,2.2-0.4l0.3,1.6
			c-1.2,0.4-1.9,0.5-2.8,0.5c-3.1,0-5-1.7-5-5.8v-9.8h-3.2v-1.5C348.8,18.9,352,18.9,352,18.9z"/>
		<path class="st1" d="M362.6,18.9h1.7l0.2,4.2c1.1-2.9,3.5-4.5,6.4-4.3v1.8c-3.8-0.2-6.1,2.1-6.3,6.6v8.4h-1.9V18.9H362.6z"/>
		<path class="st1" d="M374.9,12.6c0.9,0,1.5,0.5,1.5,1.5s-0.6,1.5-1.5,1.5s-1.5-0.6-1.5-1.5S373.9,12.6,374.9,12.6z M375.8,18.9
			v16.7h-1.9V18.9H375.8z"/>
		<path class="st1" d="M379.8,27.3c0-6,2.8-8.8,7.9-8.8c3.3,0,5.4,1.3,6.7,3.5l-1.4,0.9c-1-1.9-2.8-2.9-5.2-2.9c-4,0-5.9,2-5.9,7.2
			c0,5.1,2,7.1,5.9,7.1c2.7,0,4.4-0.9,5.4-3.3l1.5,0.8c-1.2,2.8-3.6,4.1-6.9,4.1C382.6,36,379.8,33.3,379.8,27.3z"/>
		<path class="st1" d="M403.1,36c-3.5,0-5.8-1.8-5.8-5c0-3.3,2.3-5.4,7.3-5.4h5c0-4.2-1.6-5.5-5-5.5c-2.7,0-4.3,0.9-5.3,2.3
			l-1.1-1.2c1.2-1.8,3.5-2.7,6.6-2.7c4.4,0,6.8,1.7,6.8,6.7v10.4h-1.7l-0.2-3.7C408.6,34.5,406.3,36,403.1,36z M409.6,27.9v-0.8
			h-4.9c-3.6,0-5.4,1.1-5.4,3.8c0,2.2,1.5,3.5,4.3,3.5C407.2,34.4,409.4,32,409.6,27.9z"/>
		<path class="st1" d="M416.2,32.1V11.3h1.9v20.5c0,1.7,0.5,2.2,2.1,2.2h1.2v1.6h-1.6C417.5,35.6,416.2,34.6,416.2,32.1z"/>
		<path class="st1" d="M444.6,30.1h-12l-1.9,5.5h-2.1l8.8-24.3h2.5l8.8,24.3h-2.1L444.6,30.1z M433.2,28.4H444l-5.4-15.2L433.2,28.4
			z"/>
		<path class="st1" d="M450.2,27.3c0-6,2.8-8.8,7.9-8.8c3.3,0,5.4,1.3,6.7,3.5l-1.4,0.9c-1-1.9-2.8-2.9-5.2-2.9c-4,0-5.9,2-5.9,7.2
			c0,5.1,2,7.1,5.9,7.1c2.7,0,4.4-0.9,5.4-3.3l1.5,0.8c-1.2,2.8-3.6,4.1-6.9,4.1C453,36,450.2,33.3,450.2,27.3z"/>
		<path class="st1" d="M467.5,27.3c0-6,2.8-8.8,7.9-8.8c3.3,0,5.4,1.3,6.7,3.5l-1.4,0.9c-1-1.9-2.8-2.9-5.2-2.9c-4,0-5.9,2-5.9,7.2
			c0,5.1,2,7.1,5.9,7.1c2.7,0,4.4-0.9,5.4-3.3l1.5,0.8c-1.2,2.8-3.6,4.1-6.9,4.1C470.2,36,467.5,33.3,467.5,27.3z"/>
		<path class="st1" d="M484.7,27.3c0-5.7,2.7-8.7,7.7-8.7c4.8,0,7.1,3.2,7.1,8.2c0,0.5,0,1.1,0,1.1h-12.8c0.1,4.6,2.1,6.6,5.9,6.6
			c2.7,0,4.5-0.9,5.5-3.2l1.5,0.8c-1.2,2.8-3.7,4.1-7,4.1C487.5,36,484.7,33.3,484.7,27.3z M486.6,26.3h10.9
			c-0.1-4.2-1.9-6.2-5.2-6.2C488.8,20.1,486.9,22,486.6,26.3z"/>
		<path class="st1" d="M513.7,31.4c0-1.8-1-2.5-4-3.2l-1.6-0.3c-3.6-0.8-5.3-2.2-5.3-4.6c0-2.7,1.9-4.8,6.1-4.8c2.7,0,4.5,0.8,6,2.6
			l-1.3,1.2c-1.3-1.6-2.6-2.3-4.8-2.3c-2.8,0-4.2,1.2-4.2,3.1c0,1.5,0.9,2.4,3.7,3l1.8,0.4c4.3,0.9,5.3,2.5,5.3,4.6
			c0,2.6-1.6,4.8-6.5,4.8c-3.1,0-5.4-0.9-7-3.2l1.4-1.1c1.4,2,3,2.8,5.7,2.8C512.5,34.5,513.7,33.2,513.7,31.4z"/>
		<path class="st1" d="M530.1,31.4c0-1.8-1-2.5-4-3.2l-1.6-0.3c-3.6-0.8-5.3-2.2-5.3-4.6c0-2.7,1.9-4.8,6.1-4.8c2.7,0,4.5,0.8,6,2.6
			l-1.3,1.2c-1.3-1.6-2.6-2.3-4.8-2.3c-2.8,0-4.2,1.2-4.2,3.1c0,1.5,0.9,2.4,3.7,3l1.8,0.4c4.3,0.9,5.3,2.5,5.3,4.6
			c0,2.6-1.6,4.8-6.5,4.8c-3.1,0-5.4-0.9-7-3.2l1.4-1.1c1.4,2,3,2.8,5.7,2.8C528.9,34.5,530.1,33.2,530.1,31.4z"/>
		<path class="st1" d="M542.9,18.5c5.2,0,7.9,2.7,7.9,8.7c0,5.9-2.7,8.7-7.9,8.7s-7.9-2.7-7.9-8.7C535,21.3,537.8,18.5,542.9,18.5z
			 M542.9,20.1c-4.1,0-6,2.1-6,7.2c0,5,1.9,7.1,6,7.1s5.9-2.1,5.9-7.1C548.9,22.2,547,20.1,542.9,20.1z"/>
		<path class="st1" d="M554.8,18.9h1.7l0.2,4.2c1.1-2.9,3.5-4.5,6.4-4.3v1.8c-3.8-0.2-6.1,2.1-6.3,6.6v8.4h-1.9V18.9H554.8z"/>
		<path class="st1" d="M567,12.6c0.9,0,1.5,0.5,1.5,1.5s-0.6,1.5-1.5,1.5s-1.5-0.6-1.5-1.5S566,12.6,567,12.6z M568,18.9v16.7h-2
			V18.9H568z"/>
		<path class="st1" d="M571.8,27.3c0-5.7,2.7-8.7,7.7-8.7c4.8,0,7.1,3.2,7.1,8.2c0,0.5,0,1.1,0,1.1h-12.8c0.1,4.6,2.1,6.6,5.9,6.6
			c2.7,0,4.5-0.9,5.5-3.2l1.5,0.8c-1.2,2.8-3.7,4.1-7,4.1C574.7,36,571.8,33.3,571.8,27.3z M573.8,26.3h10.9
			c-0.1-4.2-1.9-6.2-5.2-6.2C576,20.1,574,22,573.8,26.3z"/>
		<path class="st1" d="M600.9,31.4c0-1.8-1-2.5-4-3.2l-1.6-0.3c-3.6-0.8-5.3-2.2-5.3-4.6c0-2.7,1.9-4.8,6.1-4.8c2.7,0,4.5,0.8,6,2.6
			l-1.3,1.2c-1.3-1.6-2.6-2.3-4.8-2.3c-2.8,0-4.2,1.2-4.2,3.1c0,1.5,0.9,2.4,3.7,3l1.8,0.4c4.3,0.9,5.3,2.5,5.3,4.6
			c0,2.6-1.6,4.8-6.5,4.8c-3.1,0-5.4-0.9-7-3.2l1.4-1.1c1.4,2,3,2.8,5.7,2.8C599.6,34.5,600.9,33.2,600.9,31.4z"/>
	</g>
</g>
<g id="g7">
	<polygon id="polygon9" class="st2" points="219.1,37.3 228,37.3 228,5.8 219.1,5.8 	"/>
	<polygon id="polygon11" class="st2" points="241,5.8 241,37.3 232.1,37.3 232.1,5.8 	"/>
	<polygon id="polygon13" class="st2" points="26.9,18 19.7,18 19.7,5.8 8,5.8 8,37.3 19.7,37.3 19.7,21.7 26.9,21.7 26.9,37.3 
		38.6,37.3 38.6,5.8 26.9,5.8 	"/>
	<path id="path15" class="st2" d="M81.9,17.5l-0.7-2.1h-9.6v21.9h9.6V24.2l0,0c0-2.9,1.8-4.4,3.4-4.4c1.3,0,3,0.3,3,3.1l0,0v14.4
		h9.6V23.1l0,0C97.2,15.2,88.2,12.1,81.9,17.5L81.9,17.5L81.9,17.5L81.9,17.5z"/>
	<path id="path17" class="st2" d="M180.8,28.1l-4.5-12.7h-6.6l-4.5,13.2l-4.7-13.2h-9.2h-0.1h-3.6L143,26.6l-6.5-11.1h-11l13,22.1
		l-1.7,4.2l0,0c-0.6,1.3-2,1.4-2.3,0.1c0-2.2-1.8-4-4.1-4c-2.2,0-4.1,1.8-4.1,4c0,2.3,2.4,5.4,7,5.2c4.6-0.2,6.6-4,7.2-5.7l0,0
		l10.7-25.9l7.7,21.8h7l4.3-12.6l4.4,12.6h6.6l7.5-21.9h-3.8L180.8,28.1L180.8,28.1L180.8,28.1z"/>
	<path id="path19" class="st2" d="M55.2,14.3c-7.4,0-13.3,5.5-13.3,12.2c0,6.8,6,12.2,13.3,12.2c7.4,0,13.3-5.5,13.3-12.2
		S62.6,14.3,55.2,14.3L55.2,14.3L55.2,14.3L55.2,14.3z M58.5,32.3c0,1.8-1.5,3.3-3.3,3.3s-3.3-1.5-3.3-3.3l0,0V20.8l0,0
		c0-1.8,1.5-3.3,3.3-3.3s3.3,1.5,3.3,3.3l0,0V32.3L58.5,32.3L58.5,32.3z"/>
	<path id="path21" class="st2" d="M126.6,28.3c0.1-0.5,0.1-1.2,0.1-1.8c0-6.8-6-12.2-13.3-12.2c-7.4,0-13.3,5.5-13.3,12.2
		c0,6.8,6,12.2,13.3,12.2c5.1,0,9.5-2.6,11.7-6.4l0,0l-2.9-1.1l0,0c-1.8,2.7-5,4.5-8.8,4.5c-1.8,0-3.3-1.7-3.3-3.6l0,0v-4
		L126.6,28.3L126.6,28.3L126.6,28.3z M110.1,20.8c0-1.8,1.5-3.3,3.3-3.3s3.3,1.5,3.3,3.3l0,0v4.4h-6.6L110.1,20.8L110.1,20.8
		L110.1,20.8z"/>
	<path id="path23" class="st2" d="M215.8,28.3c0.1-0.5,0.1-1.2,0.1-1.8c0-6.8-6-12.2-13.3-12.2c-7.4,0-13.3,5.5-13.3,12.2
		c0,6.8,6,12.2,13.3,12.2c5.1,0,9.5-2.6,11.7-6.4l0,0l-2.9-1.1l0,0c-1.8,2.7-5,4.5-8.8,4.5c-1.8,0-3.3-1.7-3.3-3.6l0,0v-4
		L215.8,28.3L215.8,28.3L215.8,28.3z M199.2,20.8c0-1.8,1.5-3.3,3.3-3.3s3.3,1.5,3.3,3.3l0,0v4.4h-6.6V20.8L199.2,20.8L199.2,20.8z"
		/>
</g>
</svg>
