<?xml version="1.0" encoding="utf-8"?>
<!-- Generator: Adobe Illustrator 21.1.0, SVG Export Plug-In . SVG Version: 6.00 Build 0)  -->
<svg version="1.1" id="Layer_1" xmlns="http://www.w3.org/2000/svg" xmlns:xlink="http://www.w3.org/1999/xlink" x="0px" y="0px"
	 viewBox="0 0 250.7 50" style="enable-background:new 0 0 250.7 50;" xml:space="preserve">
<style type="text/css">
	.st0{fill:#DE1E34;}
</style>
<g id="g7">
	<polygon id="polygon9" class="st0" points="219.1,37.3 228,37.3 228,5.8 219.1,5.8 	"/>
	<polygon id="polygon11" class="st0" points="241,5.8 241,37.3 232.1,37.3 232.1,5.8 	"/>
	<polygon id="polygon13" class="st0" points="26.9,18 19.7,18 19.7,5.8 8,5.8 8,37.3 19.7,37.3 19.7,21.7 26.9,21.7 26.9,37.3 
		38.6,37.3 38.6,5.8 26.9,5.8 	"/>
	<path id="path15" class="st0" d="M81.9,17.5l-0.7-2.1h-9.6v21.9h9.6V24.2l0,0c0-2.9,1.8-4.4,3.4-4.4c1.3,0,3,0.3,3,3.1l0,0v14.4
		h9.6V23.1l0,0C97.2,15.2,88.2,12.1,81.9,17.5L81.9,17.5L81.9,17.5L81.9,17.5z"/>
	<path id="path17" class="st0" d="M180.8,28.1l-4.5-12.7h-6.6l-4.5,13.2l-4.7-13.2h-9.2h-0.1h-3.6L143,26.6l-6.5-11.1h-11l13,22.1
		l-1.7,4.2l0,0c-0.6,1.3-2,1.4-2.3,0.1c0-2.2-1.8-4-4.1-4c-2.2,0-4.1,1.8-4.1,4c0,2.3,2.4,5.4,7,5.2c4.6-0.2,6.6-4,7.2-5.7l0,0
		l10.7-25.9l7.7,21.8h7l4.3-12.6l4.4,12.6h6.6l7.5-21.9h-3.8L180.8,28.1L180.8,28.1L180.8,28.1z"/>
	<path id="path19" class="st0" d="M55.2,14.3c-7.4,0-13.3,5.5-13.3,12.2c0,6.8,6,12.2,13.3,12.2c7.4,0,13.3-5.5,13.3-12.2
		S62.6,14.3,55.2,14.3L55.2,14.3L55.2,14.3L55.2,14.3z M58.5,32.3c0,1.8-1.5,3.3-3.3,3.3s-3.3-1.5-3.3-3.3l0,0V20.8l0,0
		c0-1.8,1.5-3.3,3.3-3.3s3.3,1.5,3.3,3.3l0,0V32.3L58.5,32.3L58.5,32.3z"/>
	<path id="path21" class="st0" d="M126.6,28.3c0.1-0.5,0.1-1.2,0.1-1.8c0-6.8-6-12.2-13.3-12.2c-7.4,0-13.3,5.5-13.3,12.2
		c0,6.8,6,12.2,13.3,12.2c5.1,0,9.5-2.6,11.7-6.4l0,0l-2.9-1.1l0,0c-1.8,2.7-5,4.5-8.8,4.5c-1.8,0-3.3-1.7-3.3-3.6l0,0v-4
		L126.6,28.3L126.6,28.3L126.6,28.3z M110.1,20.8c0-1.8,1.5-3.3,3.3-3.3s3.3,1.5,3.3,3.3l0,0v4.4h-6.6L110.1,20.8L110.1,20.8
		L110.1,20.8z"/>
	<path id="path23" class="st0" d="M215.8,28.3c0.1-0.5,0.1-1.2,0.1-1.8c0-6.8-6-12.2-13.3-12.2c-7.4,0-13.3,5.5-13.3,12.2
		c0,6.8,6,12.2,13.3,12.2c5.1,0,9.5-2.6,11.7-6.4l0,0l-2.9-1.1l0,0c-1.8,2.7-5,4.5-8.8,4.5c-1.8,0-3.3-1.7-3.3-3.6l0,0v-4
		L215.8,28.3L215.8,28.3L215.8,28.3z M199.2,20.8c0-1.8,1.5-3.3,3.3-3.3s3.3,1.5,3.3,3.3l0,0v4.4h-6.6V20.8L199.2,20.8L199.2,20.8z"
		/>
</g>
</svg>
